<?xml version="1.0" encoding="UTF-8" standalone="no"?>
<!-- Created with Inkscape (http://www.inkscape.org/) -->

<svg
   xmlns:dc="http://purl.org/dc/elements/1.1/"
   xmlns:cc="http://creativecommons.org/ns#"
   xmlns:rdf="http://www.w3.org/1999/02/22-rdf-syntax-ns#"
   xmlns:svg="http://www.w3.org/2000/svg"
   xmlns="http://www.w3.org/2000/svg"
   xmlns:sodipodi="http://sodipodi.sourceforge.net/DTD/sodipodi-0.dtd"
   xmlns:inkscape="http://www.inkscape.org/namespaces/inkscape"
   version="1.1"
   id="svg83"
   width="3309"
   height="3333"
   viewBox="0 0 3309 3333"
   sodipodi:docname="casan.svg"
   inkscape:version="0.92.3 (2405546, 2018-03-11)">
  <metadata
     id="metadata89">
    <rdf:RDF>
      <cc:Work
         rdf:about="">
        <dc:format>image/svg+xml</dc:format>
        <dc:type
           rdf:resource="http://purl.org/dc/dcmitype/StillImage" />
        <dc:title></dc:title>
      </cc:Work>
    </rdf:RDF>
  </metadata>
  <defs
     id="defs87" />
  <sodipodi:namedview
     pagecolor="#ffffff"
     bordercolor="#666666"
     borderopacity="1"
     objecttolerance="10"
     gridtolerance="10"
     guidetolerance="10"
     inkscape:pageopacity="0"
     inkscape:pageshadow="2"
     inkscape:window-width="1920"
     inkscape:window-height="1025"
     id="namedview85"
     showgrid="false"
     inkscape:zoom="0.12511251"
     inkscape:cx="774.3359"
     inkscape:cy="1538.7672"
     inkscape:window-x="1600"
     inkscape:window-y="0"
     inkscape:window-maximized="1"
     inkscape:current-layer="svg83"
     inkscape:pagecheckerboard="true" />
  <path
     inkscape:connector-curvature="0"
     id="path101"
     d="M 7.9927632,1670.5 V 4.0000111 H 1662.4928 h 1654.5 V 1670.5 3337 H 1662.4928 7.9927632 Z"
     style="fill:none;fill-opacity:1" />
  <path
     inkscape:connector-curvature="0"
     id="path99"
     d="m 854.49276,3332.8879 c -50.7176,-4.7435 -96.1888,-20.4897 -130.8971,-45.3281 -53.4189,-38.2284 -79.658,-88.9565 -79.5846,-153.861 0.058,-51.2668 16.5953,-91.5562 51.9355,-126.5287 40.8391,-40.4143 102.2769,-65.8565 175.2705,-72.5818 57.4214,-5.2906 93.3413,-1.7116 140.69644,14.019 12.8497,4.2685 19.7565,6.1155 20.4133,5.4587 1.7649,-1.7649 1.9512,-16.1364 0.3302,-25.4752 -4.4657,-25.728 -21.0301,-39.5152 -55.89144,-46.5204 -22.3986,-4.5009 -33.1536,-5.2432 -83.7134,-5.7774 -60.1455,-0.6356 -108.6134,1.3097 -156.9207,6.2982 -9.7785,1.0097 -15.709,1.2385 -16.3181,0.6294 -0.609,-0.609 4.4133,-25.0334 13.8193,-67.2049 12.9458,-58.0419 15.0291,-66.3562 16.8181,-67.1201 1.9366,-0.8269 39.3027,-4.574 68.542,-6.8735 75.035,-5.901 170.1243,-6.5086 228.00004,-1.4569 72.9603,6.3684 124.076,19.7143 156.5301,40.869 9.9825,6.5069 25.4526,21.0784 32.3933,30.5117 19.3827,26.3434 30.6289,61.3579 34.0633,106.0541 0.7808,10.161 1.0243,73.0012 0.8137,210 l -0.3004,195.5 -108.25,0.2545 -108.25,0.2544 v -18.4454 c 0,-10.145 -0.4107,-18.6993 -0.9127,-19.0095 -0.5019,-0.3103 -4.2144,1.7189 -8.25,4.5092 -31.9545,22.0946 -74.01704,36.723 -119.05894,41.4062 -15.9305,1.6563 -55.5564,1.889 -71.2784,0.4185 z m 137,-153.2838 c 16.53464,-4.5326 28.21654,-11.1234 39.02334,-22.0166 8.7202,-8.7901 12.568,-15.0012 14.9438,-24.1225 7.677,-29.474 -13.8207,-58.3963 -52.12614,-70.1289 -8.175,-2.504 -10.1593,-2.7079 -26.341,-2.7079 -16.1617,0 -18.1727,0.2061 -26.2966,2.695 -25.8735,7.927 -44.9142,24.3912 -50.8647,43.982 -1.7239,5.6756 -2.0121,8.6906 -1.6369,17.1266 0.3926,8.8288 0.8872,11.1612 3.5922,16.9416 4.3909,9.3833 8.68,15.023 16.1418,21.225 10.3531,8.605 23.5867,14.8406 38.0642,17.9355 8.9523,1.9138 37.2351,1.3359 45.5,-0.9298 z m 1111.00004,153.7708 c -27.8332,-2.7934 -46.1952,-6.1175 -65.7164,-11.8969 -67.167,-19.8855 -119.9403,-65.9078 -139.6641,-121.798 -13.6649,-38.721 -14.444,-85.5626 -2.0589,-123.7768 4.1886,-12.9241 14.6173,-33.5926 22.3961,-44.3867 29.6383,-41.1271 79.5032,-72.4684 139.0433,-87.3919 24.3838,-6.1117 50.2057,-9.6521 82.1498,-11.2635 47.1519,-2.3784 87.9252,4.2044 132.1452,21.3349 2.7919,1.0816 3.4384,1.0495 4.2347,-0.2098 1.2987,-2.0541 1.2103,-21.7282 -0.1267,-28.187 -4.2388,-20.4768 -19.6106,-34.5743 -44.9386,-41.2134 -24.5083,-6.4242 -38.7271,-7.6735 -94.2493,-8.2811 -59.8932,-0.6554 -112.3568,1.437 -156.5605,6.244 -17.4573,1.8985 -17.1546,1.913 -17.1546,-0.8256 0,-4.5256 29.0593,-132.1422 30.264,-132.9074 0.6798,-0.4318 2.0338,-0.792 3.0088,-0.8004 0.9751,-0.01 10.4251,-0.8933 21,-1.9664 62.6849,-6.361 105.9738,-8.4595 175.2272,-8.4943 58.5772,-0.03 71.3651,0.4439 109,4.0354 67.2387,6.4166 117.4093,20.5206 148.4696,41.738 15.8148,10.803 33.2005,31.1035 42.4882,49.6111 6.8652,13.6805 13.6618,34.6615 16.9926,52.4557 5.0709,27.0906 4.8789,18.5825 5.271,233.6052 0.201,110.275 0.1119,201.5145 -0.1981,202.7545 l -0.5636,2.2544 -108.2299,-0.2544 -108.2298,-0.2545 -0.2721,-18.75 c -0.1496,-10.3125 -0.4756,-18.75 -0.7245,-18.75 -0.2488,0 -5.3014,3.199 -11.2279,7.109 -12.3298,8.1344 -34.1499,19.0696 -48.7755,24.4441 -13.2631,4.8738 -37.6908,10.8833 -55,13.5306 -11.4912,1.7575 -19.376,2.1906 -44,2.4169 -16.5,0.1516 -31.8,0.095 -34,-0.1257 z m 134.9507,-154.7892 c 50.4321,-15.1751 67.9996,-61.2639 35.6707,-93.5832 -16.4818,-16.4769 -38.1318,-24.9762 -63.6214,-24.9762 -25.3437,0 -47.0044,8.5471 -63.5227,25.0654 -28.9862,28.9862 -16.7718,72.4834 25.3203,90.1686 12.5659,5.2796 22.0118,6.7567 40.7024,6.3647 14.4195,-0.3024 17.6286,-0.6856 25.4507,-3.0393 z M 358.99276,3332.3982 c -2.475,-0.208 -10.35,-0.8549 -17.5,-1.4376 -82.2863,-6.7059 -155.1123,-31.7519 -211.2401,-72.6488 C 67.664963,3212.7081 30.280163,3157.0765 16.137863,3088.5 c -4.4258,-21.4606 -5.5306,-33.7736 -5.5184,-61.5 0.013,-28.5729 0.9833,-38.5515 5.8882,-60.5341 8.097,-36.2884 26.546,-73.3539 50.7525,-101.9659 10.8335,-12.8052 28.431,-29.8941 41.402897,-40.2062 67.0435,-53.2967 151.9674,-82.9751 258.3297,-90.2784 18.9792,-1.3032 72.9594,-1.2943 90.0501,0.015 27.2547,2.0876 70.6922,8.64 79.5151,11.9945 l 2.4348,0.9257 v 94.9657 c 0,56.362 -0.372,95.1957 -0.9152,95.5314 -0.5033,0.311 -5.5658,-0.3197 -11.25,-1.4017 -62.5347,-11.9033 -102.9349,-14.3069 -142.7137,-8.4908 -60.8939,8.9034 -99.1716,36.2429 -110.7589,79.1087 -1.4548,5.382 -1.8494,10.4525 -1.8551,23.8362 -0.01,19.4573 1.4609,26.5148 8.3855,40.2855 15.2827,30.3918 49.9287,53.225 95.0259,62.6259 21.2263,4.4248 29.0333,5.0816 59.5815,5.0122 29.218,-0.066 47.6697,-1.3788 87.622,-6.2325 8.0421,-0.977 15.1296,-1.6072 15.75,-1.4004 0.8266,0.2755 1.128,25.4721 1.128,94.3141 v 93.9381 l -2.25,0.9448 c -4.7618,1.9996 -47.2896,7.8629 -76.75,10.5816 -16.3787,1.5114 -89.1078,2.8284 -101,1.8289 z m 1147.50004,-4.391 c -27.9473,-1.2998 -106.2942,-8.0434 -110.2553,-9.49 -0.997,-0.3642 -1.2027,-19.2344 -1,-91.7378 0.225,-80.4301 0.4336,-91.2628 1.7553,-91.1394 0.825,0.077 7.6024,1.9447 15.0609,4.1505 35.8898,10.6143 64.5673,12.6189 87.925,6.1462 25.1518,-6.9699 38.691,-24.4295 32.516,-41.9313 -5.3083,-15.0452 -29.4834,-37.2301 -73.0019,-66.992 -21.4563,-14.6737 -29.8646,-21.4078 -41.7938,-33.4723 -21.4176,-21.6604 -34.8867,-46.3119 -39.3533,-72.0256 -2.1589,-12.4281 -1.3655,-41.4281 1.4641,-53.5155 6.5256,-27.8758 17.7331,-47.7632 38.6043,-68.5023 44.0458,-43.7673 114.4966,-68.4903 212.5787,-74.5995 23.4898,-1.4631 83.5035,-0.6143 106.5,1.5062 27.1959,2.5077 52.8964,5.7457 54.25,6.8347 0.9823,0.7904 1.2467,19.0195 1.2347,85.1333 -0.01,46.2702 -0.4062,84.7447 -0.884,85.4989 -0.71,1.1208 -2.8545,0.7176 -11.7347,-2.2062 -44.2514,-14.5695 -91.5429,-16.2372 -115.5449,-4.0745 -20.0129,10.1413 -23.4619,27.8827 -8.9679,46.1299 5.3238,6.7024 18.9512,18.6198 36.6468,32.0482 52.7115,40.0004 82.1348,68.3808 97.9526,94.4807 14.1391,23.3302 20.8564,48.5708 20.8247,78.2506 -0.027,25.409 -3.9807,43.8911 -13.6904,64 -7.1926,14.8958 -15.6828,26.3866 -29.1008,39.3851 -37.296,36.1301 -95.538,57.8039 -173.4861,64.5598 -21.951,1.9026 -64.8879,2.6605 -88.5,1.5623 z m 1142.964,-5.2534 c -0.2619,-0.6896 -0.3609,-132.2038 -0.2201,-292.2538 l 0.2561,-291 h 124.5 124.5 l 0.2673,25.9673 c 0.1471,14.2821 0.6674,26.3674 1.1563,26.8563 0.5187,0.5187 4.1867,-1.8392 8.8052,-5.6601 24.4799,-20.2528 59.797,-37.7271 93.25,-46.1387 61.2585,-15.4031 138.0129,-13.3867 193.0212,5.0709 14.2048,4.7663 36.4376,15.9626 47.9867,24.1659 10.9332,7.7658 27.2999,23.6263 34.6989,33.6256 18.7325,25.3159 29.7202,55.123 34.5082,93.6128 1.0371,8.3366 1.3062,53.3558 1.3062,218.5 v 208 h -127 -127 l -0.5674,-167.5 c -0.5162,-152.3711 -0.7214,-168.2677 -2.2711,-176 -5.1293,-25.5924 -13.437,-38.8788 -29.0859,-46.5166 -20.673,-10.0898 -53.3961,-10.9283 -77.191,-1.9779 -22.7482,8.5567 -36.8775,26.503 -44.1016,56.0156 -1.5641,6.39 -1.7536,20.8587 -2.2456,171.4789 l -0.5374,164.5 -126.7799,0.2538 c -100.8976,0.202 -126.8771,0 -127.2561,-1 z M 745.99276,2465.9443 c -77.6276,-4.0862 -155.5414,-30.9748 -219.232,-75.6583 -29.9852,-21.0367 -67.3201,-55.912 -89.1598,-83.286 -77.0758,-96.607 -108.1623,-217.8267 -87.064,-339.5 8.2877,-47.7944 24.6124,-92.7317 50.1324,-138 12.1999,-21.6407 891.90474,-1544.14924 897.32214,-1552.99883 35.607,-58.1664 84.6385,-107.36573 142.144,-142.63038 104.4527,-64.054579 230.862,-79.724579 348.8573,-43.244979 15.4204,4.7673 41.1077,15.002599 57.2896,22.827399 75.2049,36.36526 139.1773,95.10489 181.9279,167.0468 31.0246,52.2091 872.7354,1510.76719 872.2723,1511.51659 -0.8105,1.3113 -584.1392,1.3596 -584.9496,0.049 -0.3178,-0.5143 -1.2729,-6.2518 -2.1224,-12.75 -4.5162,-34.5452 -13.2502,-70.4752 -24.8711,-102.3151 -7.5995,-20.8218 -439.0462,-1033.71227 -442.3367,-1038.45662 -5.9791,-8.62083 -19.2006,-11.99719 -29.21,-7.45934 -5.7969,2.62808 -8.6535,5.34359 -11.4829,10.91597 -3.1902,6.28313 -431.7821,1012.98599 -437.0202,1026.49999 -10.6241,27.4093 -20.3009,62.9824 -25.4345,93.5 -14.8024,87.996 -5.2383,177.5421 27.9155,261.3639 7.2182,18.2496 22.8726,50.3226 32.5243,66.6361 82.9341,140.1779 226.4189,229.5567 388.4477,241.9696 17.2817,1.3239 52.8484,1.3225 70.1002,0 103.9158,-7.9833 198.7882,-46.4839 279.4499,-113.4048 15.1026,-12.5299 48.063,-45.4382 60.6578,-60.5619 60.5122,-72.6626 98.031,-156.9828 110.9108,-249.2623 1.1697,-8.3807 2.6453,-15.5683 3.2791,-15.9724 0.6338,-0.4041 143.8597,-0.7416 318.2799,-0.75 266.9525,-0.013 317.307,0.201 318.2619,1.3515 0.6239,0.7518 3.1905,7.6143 5.7036,15.25 34.8076,105.7581 26.4585,221.7324 -23.1231,321.1938 -21.4694,43.068 -45.7368,76.5899 -80.9031,111.7563 -40.8722,40.8721 -82.5739,69.2093 -134.5669,91.441 -37.6012,16.0778 -76.6582,26.1471 -123,31.7106 -13.6741,1.6416 -66.3916,1.7478 -925.5,1.8649 -501.05,0.068 -917.52504,-0.2194 -925.50004,-0.6391 z M 1797.9358,2267.0019 c -94.3889,-7.0259 -180.9053,-43.2733 -251.943,-105.5554 -12.4794,-10.9412 -33.5181,-32.3924 -44.0824,-44.9465 -57.1673,-67.9353 -91.2759,-150.3876 -98.8687,-239 -1.5375,-17.9429 -1.2779,-55.7148 0.5125,-74.5626 13.8824,-146.1484 102.3652,-274.9991 233.9386,-340.6672 43.3681,-21.645 85.8978,-34.5684 136.5,-41.4781 14.5422,-1.9857 20.7716,-2.2553 52.5,-2.2726 38.5554,-0.021 48.3072,0.7473 77.5,6.1049 112.2814,20.6065 212.6254,86.7993 276.4695,182.3756 22.2605,33.3245 38.1044,65.6632 50.6003,103.2789 7.7409,23.3021 16.6018,62.8376 17.1952,76.7211 l 0.235,5.5 h -153.4241 -153.4241 l -4.755,-8.2736 c -17.3477,-30.185 -40.1713,-49.3467 -71.1066,-59.6983 -25.5463,-8.5484 -52.1576,-8.5204 -78.2902,0.082 -30.3724,9.9983 -57.7994,33.9216 -72.4186,63.1673 -3.9269,7.8558 -8.4704,21.4167 -10.461,31.2225 -5.2678,25.9503 -1.6701,52.9862 10.3185,77.5404 7.113,14.5684 14.8709,25.2146 26.4023,36.2318 37.1426,35.4867 91.4582,44.3631 138.5423,22.641 23.0489,-10.6336 44.4133,-31.0807 57.1158,-54.6632 l 4.1744,-7.75 h 154.0284 154.0283 l -0.6962,5.75 c -4.9098,40.5474 -19.1284,87.8 -38.4408,127.75 -22.0623,45.6385 -47.1406,80.7109 -84.0329,117.5216 -34.2238,34.148 -73.4,61.8899 -116.5605,82.5401 -42.8839,20.5179 -89.7896,33.7622 -138,38.9656 -17.011,1.836 -57.734,2.6524 -73.557,1.4746 z"
     style="fill:#5966ad" />
  <path
     inkscape:connector-curvature="0"
     id="path97"
     d="m 874.99276,3332.3925 c -47.7353,-2.5272 -83.6878,-10.9005 -117.8837,-27.455 -22.7026,-10.9905 -39.656,-22.6684 -56.4893,-38.9109 -37.2426,-35.9357 -54.7269,-77.9075 -54.7905,-131.5266 -0.037,-31.3887 4.9958,-54.0766 17.7468,-80 8.3702,-17.0169 17.2107,-29.2157 31.9167,-44.0411 42.0876,-42.4293 100.3516,-66.6525 179.5,-74.6266 6.875,-0.6927 24.65,-1.2526 39.5,-1.2443 22.7917,0.013 29.26,0.3604 41.5,2.2305 18.9461,2.8946 39.3567,7.9943 58.98794,14.7384 8.7143,2.9937 16.5266,5.4431 17.3607,5.4431 2.3308,0 2.967,-3.486 2.92,-16 -0.073,-19.4526 -4.598,-31.4015 -15.8923,-41.9668 -14.8298,-13.8726 -40.40534,-21.1041 -84.85924,-23.9941 -44.8226,-2.914 -140.8891,-0.2049 -197.3482,5.5652 -8.4321,0.8618 -15.5144,1.3835 -15.7386,1.1594 -0.6139,-0.614 28.2758,-129.8726 29.2371,-130.813 1.5084,-1.4754 59.3888,-6.7208 105.3326,-9.5457 34.6467,-2.1304 121.9344,-2.9895 152.00004,-1.4961 67.5177,3.3536 116.3395,10.9699 154.3425,24.0777 63.0374,21.7424 93.5253,62.057 104.3724,138.0134 1.6668,11.6715 1.7851,26.0215 1.7851,216.5 v 204 h -106.5 -106.5 l -0.2716,-19.25 c -0.2233,-15.8247 -0.524,-19.25 -1.69,-19.25 -0.7801,0 -5.3829,2.6589 -10.2284,5.9087 -33.8141,22.6786 -74.99694,36.7155 -120.31004,41.0069 -12.2509,1.1603 -38.6426,1.9723 -48,1.4769 z m 117.5,-151.1761 c 28.67304,-7.9479 49.82994,-26.5445 54.96024,-48.3095 5.3339,-22.6283 -5.0476,-44.3223 -28.6512,-59.8722 -27.40134,-18.0518 -65.25234,-20.0339 -95.12194,-4.9812 -13.4007,6.7533 -26.7001,19.1139 -32.1539,29.8843 -5.5101,10.8817 -7.1247,25.4937 -4.0806,36.9308 5.9509,22.3582 28.551,40.9173 57.5474,47.2575 11.4258,2.4983 36.9701,2.0091 47.5,-0.9097 z m 1117.95554,150.7179 c -63.9662,-3.4891 -116.7482,-22.7255 -158.5886,-57.7977 -41.3903,-34.6949 -63.8669,-83.8369 -63.8669,-139.6366 0,-74.8666 39.9668,-133.6053 115.3436,-169.5188 39.433,-18.788 87.1391,-28.9278 144.1509,-30.639 38.6546,-1.1602 71.5908,3.9274 108.5055,16.7604 7.975,2.7724 15.7297,5.2834 17.2326,5.58 4.1851,0.8259 5.0529,-2.6833 4.4962,-18.1826 -0.3849,-10.7148 -0.9159,-14.2093 -3.0207,-19.8792 -9.5029,-25.599 -30.3323,-36.4902 -81.0097,-42.3579 -12.8315,-1.4857 -24.1532,-1.7569 -72.6984,-1.7411 -34.6872,0.011 -66.03,0.5275 -79,1.301 -21.1062,1.2588 -62.4078,4.5618 -72.75,5.8181 -4.1198,0.5004 -5.2503,0.3386 -5.2512,-0.7516 0,-2.1838 28.2578,-129.3085 28.9143,-130.0697 1.1432,-1.3255 62.0668,-6.7491 105.5869,-9.3997 35.0651,-2.1356 121.2491,-2.9916 152,-1.5097 65.1712,3.1408 113.4886,10.4892 151.5178,23.0439 16.1485,5.3311 38.3972,16.2461 48.5065,23.7967 33.4599,24.9913 51.6026,61.5075 59.1822,119.1177 1.6736,12.7204 1.7935,27.1 1.7935,215.1315 v 201.5 h -106.5 -106.5 l -0.2722,-18.7899 c -0.223,-15.3925 -0.5368,-18.8914 -1.7355,-19.3514 -0.841,-0.3227 -6.0417,2.4996 -12.2278,6.6356 -12.2051,8.1604 -33.9754,19.1264 -48.6993,24.5305 -23.8672,8.7599 -54.5359,14.6872 -85.209,16.4682 -18.3712,1.0667 -19.2941,1.0654 -39.9007,-0.059 z m 125.0445,-150.8263 c 16.0521,-4.2935 29.808,-12.391 40.7449,-23.9847 11.3087,-11.9879 15.2629,-22.3372 14.5227,-38.0104 -0.6891,-14.5906 -5.2931,-24.5949 -16.4557,-35.7575 -14.9361,-14.9361 -35.8774,-23.8547 -58.8119,-25.047 -28.2319,-1.4678 -51.2051,6.6869 -69.5602,24.6916 -6.737,6.6084 -9.4778,10.169 -12.3161,16 -15.0536,30.9264 2.4416,65.0806 40.7108,79.4756 11.3292,4.2615 20.4326,5.498 37.6655,5.1159 11.8397,-0.2625 17.3892,-0.849 23.5,-2.4835 z M 355.49276,3330.3751 c -99.2733,-7.5346 -171.9718,-32.8269 -235.5,-81.9321 -15.867,-12.2646 -43.426097,-40.0007 -54.534297,-54.8845 -28.822,-38.6182 -45.4501,-80.6423 -51.6595,-130.5585 -1.7154,-13.7896 -1.7136,-59.4849 0,-71.5 8.2429,-57.7013 31.4235,-104.1413 72.1271,-144.5 33.955797,-33.668 81.910397,-63.1709 132.304197,-81.3968 91.804,-33.2028 211.645,-40.607 312.2597,-19.2924 l 6,1.271 0.2551,94.3188 0.2551,94.3188 -2.2551,-0.5422 c -13.4284,-3.2284 -57.7085,-9.9902 -77.0348,-11.7636 -16.2233,-1.4886 -58.455,-0.6373 -72.2656,1.4567 -49.5176,7.508 -83.8398,25.6152 -102.1961,53.9149 -10.2674,15.8294 -14.7339,33.3316 -13.9629,54.7148 0.5778,16.0257 2.7467,25.2449 8.8249,37.5113 13.7851,27.8193 43.7925,49.4859 84.3794,60.9252 28.5559,8.0484 67.1759,10.3157 111.5,6.546 16.0132,-1.3619 57.8057,-5.8406 60.7552,-6.5108 l 2.2551,-0.5124 -0.2551,93.2256 -0.2552,93.2257 -3.9356,0.8176 c -9.0106,1.872 -46.659,6.9198 -66.1352,8.8671 -16.8444,1.6842 -29.224,2.1479 -63.4292,2.3759 -23.375,0.1559 -44.75,0.1126 -47.5,-0.096 z m 1145.50004,-4.4134 c -24.6692,-1.3224 -80.1406,-6.0964 -99.25,-8.5416 l -4.75,-0.6078 v -89.4061 c 0,-51.0604 0.3788,-89.4062 0.8833,-89.4062 0.4858,0 7.7983,1.9819 16.25,4.4041 22.1618,6.3517 36.7558,8.5987 55.742,8.5828 19.6049,-0.016 31.039,-2.1479 42.8402,-7.9856 17.6703,-8.741 26.2739,-23.2525 22.2683,-37.5591 -4.4201,-15.7871 -27.1667,-37.2881 -72.6228,-68.6462 -31.2957,-21.5894 -44.8648,-33.6963 -58.8855,-52.5401 -8.3735,-11.254 -17.7506,-30.1102 -20.8909,-42.009 -3.7501,-14.2097 -5.0031,-29.4863 -3.6479,-44.4774 4.2767,-47.3099 26.5423,-82.3253 70.6657,-111.1304 11.5454,-7.5372 36.3407,-19.8242 50.5487,-25.0488 63.3984,-23.313 149.5953,-31.2603 244.3489,-22.5288 23.6061,2.1753 44.2717,4.6794 45.6504,5.5315 0.9325,0.5762 1.2044,166.7189 0.2744,167.6488 -0.3163,0.3164 -5.1053,-0.9504 -10.6422,-2.815 -24.4267,-8.2261 -48.9836,-11.8389 -75.7826,-11.1491 -20.1929,0.5197 -28.9316,2.1434 -39.1541,7.275 -12.8596,6.4554 -18.8093,14.2039 -19.6214,25.5534 -0.4633,6.4749 -0.2473,7.4632 3.1198,14.276 2.9558,5.9808 5.595,9.2217 14.4288,17.7187 5.9462,5.7196 15.7423,14.1968 21.7691,18.8384 43.5216,33.5183 53.1797,41.6517 73.0241,61.4952 17.096,17.0953 26.2268,28.4511 33.6173,41.8092 23.1014,41.7557 24.8031,95.3185 4.3621,137.3082 -14.3153,29.4063 -39.6184,52.9962 -75.9918,70.8469 -34.5401,16.9509 -74.6538,26.8569 -128.0539,31.6228 -16.3749,1.4614 -70.3223,2.0219 -90.5,0.9402 z m 1150.6705,-3.6245 c -0.3688,-0.3688 -0.6705,-131.3223 -0.6705,-291.0078 v -290.3373 l 123.25,0.254 123.25,0.2539 0.267,26.467 c 0.1469,14.5569 0.6653,26.8653 1.1521,27.3521 0.5134,0.5134 4.6006,-2.1371 9.733,-6.3116 37.9975,-30.9062 82.8306,-48.3512 141.8479,-55.1945 16.8134,-1.9496 65.566,-1.6448 83.5,0.522 55.7543,6.7365 95.9637,23.3567 125.6259,51.9265 27.8701,26.8437 42.9957,58.6441 50.0558,105.2385 1.7138,11.31 1.8183,24.0457 1.8183,221.5 v 209.5 h -125 -125 l -0.54,-166 c -0.4874,-149.864 -0.7035,-166.8804 -2.2231,-175.0576 -6.0916,-32.7815 -17.5221,-47.1709 -43.4377,-54.682 -7.0225,-2.0353 -9.8906,-2.2566 -28.7992,-2.2218 -19.9805,0.037 -21.4276,0.1708 -29.8075,2.7622 -15.6785,4.8486 -26.9706,12.1721 -35.4626,22.9991 -8.715,11.1113 -12.7347,19.9057 -16.5461,36.2001 -2.0825,8.9032 -2.1109,10.7587 -2.6445,172.5 l -0.5393,163.5 -124.5795,0.2539 c -68.5187,0.1396 -124.8812,-0.048 -125.25,-0.4167 z M 741.49276,2463.9049 c -184.025,-12.3558 -339.4431,-143.0161 -383.4948,-322.4049 -7.6076,-30.9801 -10.9097,-56.3725 -11.7039,-90 -1.7747,-75.1506 15.2077,-146.2029 50.4319,-211 10.7666,-19.8058 896.45214,-1552.64114 906.11584,-1568.19361 43.6565,-70.25912 111.8652,-129.55906 187.1394,-162.69718 104.8712,-46.167699 221.493,-48.633799 326.9812,-6.9146 38.9372,15.39921 76.4813,37.2193 110.1439,64.01412 17.2671,13.74432 51.3995,47.8766 65.2915,65.29128 15.5196,19.45495 30.4294,42.48713 54.3772,84 11.5808,20.075 207.8424,359.79003 436.1369,754.92229 228.2945,395.1323 415.0809,718.7948 415.0809,719.25 0,0.4552 -130.7164,0.8277 -290.4809,0.8277 h -290.481 l -0.4764,-2.25 c -0.262,-1.2375 -0.9617,-6.3 -1.5548,-11.25 -3.6233,-30.2401 -13.6494,-71.2333 -24.8992,-101.8046 -4.4388,-12.0625 -435.961,-1026.55595 -440.1442,-1034.7636 -4.4577,-8.74604 -14.77,-14.48795 -24.679,-13.7413 -9.8696,0.74368 -17.9158,6.2027 -22.0897,14.98685 -6.297,13.25247 -435.7406,1023.43115 -439.5378,1033.92335 -28.6177,79.0737 -36.3062,165.6757 -22.1501,249.4953 22.3661,132.4328 100.3956,251.9296 213.4931,326.9503 66.576,44.1617 136.7277,69.7327 218.4891,79.6415 15.2397,1.8469 23.3192,2.1865 52.5109,2.2068 37.1428,0.026 50.8508,-0.9881 81,-5.991 124.4062,-20.6436 235.9756,-88.2561 312.7275,-189.5172 49.9863,-65.9482 84.5535,-149.0412 94.8025,-227.8864 0.8937,-6.875 1.8236,-13.5125 2.0665,-14.75 l 0.4416,-2.25 h 316.9553 316.9552 l 1.4075,2.75 c 0.7741,1.5125 3.0008,7.7 4.9482,13.75 31.429,97.6424 26.7269,202.6261 -13.2799,296.5 -45.8811,107.6576 -135.6675,192.6776 -245.5244,232.4906 -37.1625,13.4679 -76.3511,21.6096 -118,24.5152 -17.1317,1.1951 -1821.17104,1.0962 -1839.00004,-0.1009 z M 1786.4928,2265.4546 c -58.3192,-5.9785 -115.4268,-23.7551 -165,-51.3616 -74.9658,-41.7473 -136.1866,-105.6121 -174.4407,-181.9747 -43.7181,-87.2696 -55.962,-187.7136 -34.4506,-282.6183 22.093,-97.4705 79.109,-185.6331 158.8913,-245.6904 61.8281,-46.5419 131.719,-74.1509 211.3006,-83.4698 18.1948,-2.1306 66.8738,-2.4226 84.1994,-0.505 88.1453,9.7556 162.8194,40.8015 230.3605,95.7728 15.5821,12.6822 44.3497,41.4498 57.0319,57.0319 41.1533,50.5635 69.5986,106.9632 84.6114,167.7623 3.9971,16.1877 8.9962,43.2391 8.9962,48.6809 v 2.9237 l -153.2165,-0.2532 -153.2164,-0.2532 -4.3821,-8 c -8.4875,-15.4949 -21.6451,-30.6511 -36.0325,-41.5058 -14.1065,-10.6427 -37.2652,-20.3928 -54.6362,-23.0025 -10.8023,-1.6229 -31.141,-1.4139 -41.5259,0.4266 -37.6216,6.6675 -71.348,31.5696 -88.9716,65.6926 -9.7019,18.785 -14.0188,36.4433 -14.0188,57.3439 0,35.5572 13.668,67.1488 39.5137,91.3303 49.7356,46.533 125.5539,45.3434 173.5332,-2.7227 9.581,-9.5984 16.2601,-18.5296 22.3499,-29.8857 l 4.1167,-7.6767 152.7734,-0.2532 c 142.4433,-0.2361 152.8171,-0.1393 153.4197,1.4311 0.3555,0.9263 -0.346,7.8023 -1.5589,15.2801 -11.775,72.5959 -42.0214,140.4296 -88.7509,199.042 -13.9098,17.4469 -47.0757,50.6041 -64.3968,64.3799 -63.5862,50.5713 -136.437,81.1763 -217,91.163 -18.8294,2.3341 -70.491,2.8603 -89.5,0.9117 z"
     style="fill:#01ad9a" />
  <path
     inkscape:connector-curvature="0"
     id="path95"
     d="m 874.99276,3332.3925 c -47.7353,-2.5272 -83.6878,-10.9005 -117.8837,-27.455 -22.7026,-10.9905 -39.656,-22.6684 -56.4893,-38.9109 -37.2426,-35.9357 -54.7269,-77.9075 -54.7905,-131.5266 -0.037,-31.3887 4.9958,-54.0766 17.7468,-80 8.3702,-17.0169 17.2107,-29.2157 31.9167,-44.0411 42.0876,-42.4293 100.3516,-66.6525 179.5,-74.6266 6.875,-0.6927 24.65,-1.2526 39.5,-1.2443 22.7917,0.013 29.26,0.3604 41.5,2.2305 18.9461,2.8946 39.3567,7.9943 58.98794,14.7384 8.7143,2.9937 16.5266,5.4431 17.3607,5.4431 2.3308,0 2.967,-3.486 2.92,-16 -0.073,-19.4526 -4.598,-31.4015 -15.8923,-41.9668 -14.8298,-13.8726 -40.40534,-21.1041 -84.85924,-23.9941 -44.8226,-2.914 -140.8891,-0.2049 -197.3482,5.5652 -8.4321,0.8618 -15.5144,1.3835 -15.7386,1.1594 -0.6139,-0.614 28.2758,-129.8726 29.2371,-130.813 1.5084,-1.4754 59.3888,-6.7208 105.3326,-9.5457 34.6467,-2.1304 121.9344,-2.9895 152.00004,-1.4961 67.5177,3.3536 116.3395,10.9699 154.3425,24.0777 63.0374,21.7424 93.5253,62.057 104.3724,138.0134 1.6668,11.6715 1.7851,26.0215 1.7851,216.5 v 204 h -106.5 -106.5 l -0.2716,-19.25 c -0.2233,-15.8247 -0.524,-19.25 -1.69,-19.25 -0.7801,0 -5.3829,2.6589 -10.2284,5.9087 -33.8141,22.6786 -74.99694,36.7155 -120.31004,41.0069 -12.2509,1.1603 -38.6426,1.9723 -48,1.4769 z m 117.5,-151.1761 c 28.67304,-7.9479 49.82994,-26.5445 54.96024,-48.3095 5.3339,-22.6283 -5.0476,-44.3223 -28.6512,-59.8722 -27.40134,-18.0518 -65.25234,-20.0339 -95.12194,-4.9812 -13.4007,6.7533 -26.7001,19.1139 -32.1539,29.8843 -5.5101,10.8817 -7.1247,25.4937 -4.0806,36.9308 5.9509,22.3582 28.551,40.9173 57.5474,47.2575 11.4258,2.4983 36.9701,2.0091 47.5,-0.9097 z m 1117.95554,150.7179 c -63.9662,-3.4891 -116.7482,-22.7255 -158.5886,-57.7977 -41.3903,-34.6949 -63.8669,-83.8369 -63.8669,-139.6366 0,-74.8666 39.9668,-133.6053 115.3436,-169.5188 39.433,-18.788 87.1391,-28.9278 144.1509,-30.639 38.6546,-1.1602 71.5908,3.9274 108.5055,16.7604 7.975,2.7724 15.7297,5.2834 17.2326,5.58 4.1851,0.8259 5.0529,-2.6833 4.4962,-18.1826 -0.3849,-10.7148 -0.9159,-14.2093 -3.0207,-19.8792 -9.5029,-25.599 -30.3323,-36.4902 -81.0097,-42.3579 -12.8315,-1.4857 -24.1532,-1.7569 -72.6984,-1.7411 -34.6872,0.011 -66.03,0.5275 -79,1.301 -21.1062,1.2588 -62.4078,4.5618 -72.75,5.8181 -4.1198,0.5004 -5.2503,0.3386 -5.2512,-0.7516 0,-2.1838 28.2578,-129.3085 28.9143,-130.0697 1.1432,-1.3255 62.0668,-6.7491 105.5869,-9.3997 35.0651,-2.1356 121.2491,-2.9916 152,-1.5097 65.1712,3.1408 113.4886,10.4892 151.5178,23.0439 16.1485,5.3311 38.3972,16.2461 48.5065,23.7967 33.4599,24.9913 51.6026,61.5075 59.1822,119.1177 1.6736,12.7204 1.7935,27.1 1.7935,215.1315 v 201.5 h -106.5 -106.5 l -0.2722,-18.7899 c -0.223,-15.3925 -0.5368,-18.8914 -1.7355,-19.3514 -0.841,-0.3227 -6.0417,2.4996 -12.2278,6.6356 -12.2051,8.1604 -33.9754,19.1264 -48.6993,24.5305 -23.8672,8.7599 -54.5359,14.6872 -85.209,16.4682 -18.3712,1.0667 -19.2941,1.0654 -39.9007,-0.059 z m 125.0445,-150.8263 c 16.0521,-4.2935 29.808,-12.391 40.7449,-23.9847 11.3087,-11.9879 15.2629,-22.3372 14.5227,-38.0104 -0.6891,-14.5906 -5.2931,-24.5949 -16.4557,-35.7575 -14.9361,-14.9361 -35.8774,-23.8547 -58.8119,-25.047 -28.2319,-1.4678 -51.2051,6.6869 -69.5602,24.6916 -6.737,6.6084 -9.4778,10.169 -12.3161,16 -15.0536,30.9264 2.4416,65.0806 40.7108,79.4756 11.3292,4.2615 20.4326,5.498 37.6655,5.1159 11.8397,-0.2625 17.3892,-0.849 23.5,-2.4835 z M 355.49276,3330.3751 c -99.2733,-7.5346 -171.9718,-32.8269 -235.5,-81.9321 -15.867,-12.2646 -43.426097,-40.0007 -54.534297,-54.8845 -28.822,-38.6182 -45.4501,-80.6423 -51.6595,-130.5585 -1.7154,-13.7896 -1.7136,-59.4849 0,-71.5 8.2429,-57.7013 31.4235,-104.1413 72.1271,-144.5 33.955797,-33.668 81.910397,-63.1709 132.304197,-81.3968 91.804,-33.2028 211.645,-40.607 312.2597,-19.2924 l 6,1.271 0.2551,94.3188 0.2551,94.3188 -2.2551,-0.5422 c -13.4284,-3.2284 -57.7085,-9.9902 -77.0348,-11.7636 -16.2233,-1.4886 -58.455,-0.6373 -72.2656,1.4567 -49.5176,7.508 -83.8398,25.6152 -102.1961,53.9149 -10.2674,15.8294 -14.7339,33.3316 -13.9629,54.7148 0.5778,16.0257 2.7467,25.2449 8.8249,37.5113 13.7851,27.8193 43.7925,49.4859 84.3794,60.9252 28.5559,8.0484 67.1759,10.3157 111.5,6.546 16.0132,-1.3619 57.8057,-5.8406 60.7552,-6.5108 l 2.2551,-0.5124 -0.2551,93.2256 -0.2552,93.2257 -3.9356,0.8176 c -9.0106,1.872 -46.659,6.9198 -66.1352,8.8671 -16.8444,1.6842 -29.224,2.1479 -63.4292,2.3759 -23.375,0.1559 -44.75,0.1126 -47.5,-0.096 z m 1145.50004,-4.4134 c -24.6692,-1.3224 -80.1406,-6.0964 -99.25,-8.5416 l -4.75,-0.6078 v -89.4061 c 0,-51.0604 0.3788,-89.4062 0.8833,-89.4062 0.4858,0 7.7983,1.9819 16.25,4.4041 22.1618,6.3517 36.7558,8.5987 55.742,8.5828 19.6049,-0.016 31.039,-2.1479 42.8402,-7.9856 17.6703,-8.741 26.2739,-23.2525 22.2683,-37.5591 -4.4201,-15.7871 -27.1667,-37.2881 -72.6228,-68.6462 -31.2957,-21.5894 -44.8648,-33.6963 -58.8855,-52.5401 -8.3735,-11.254 -17.7506,-30.1102 -20.8909,-42.009 -3.7501,-14.2097 -5.0031,-29.4863 -3.6479,-44.4774 4.2767,-47.3099 26.5423,-82.3253 70.6657,-111.1304 11.5454,-7.5372 36.3407,-19.8242 50.5487,-25.0488 63.3984,-23.313 149.5953,-31.2603 244.3489,-22.5288 23.6061,2.1753 44.2717,4.6794 45.6504,5.5315 0.9325,0.5762 1.2044,166.7189 0.2744,167.6488 -0.3163,0.3164 -5.1053,-0.9504 -10.6422,-2.815 -24.4267,-8.2261 -48.9836,-11.8389 -75.7826,-11.1491 -20.1929,0.5197 -28.9316,2.1434 -39.1541,7.275 -12.8596,6.4554 -18.8093,14.2039 -19.6214,25.5534 -0.4633,6.4749 -0.2473,7.4632 3.1198,14.276 2.9558,5.9808 5.595,9.2217 14.4288,17.7187 5.9462,5.7196 15.7423,14.1968 21.7691,18.8384 43.5216,33.5183 53.1797,41.6517 73.0241,61.4952 17.096,17.0953 26.2268,28.4511 33.6173,41.8092 23.1014,41.7557 24.8031,95.3185 4.3621,137.3082 -14.3153,29.4063 -39.6184,52.9962 -75.9918,70.8469 -34.5401,16.9509 -74.6538,26.8569 -128.0539,31.6228 -16.3749,1.4614 -70.3223,2.0219 -90.5,0.9402 z m 1150.6705,-3.6245 c -0.3688,-0.3688 -0.6705,-131.3223 -0.6705,-291.0078 v -290.3373 l 123.25,0.254 123.25,0.2539 0.267,26.467 c 0.1469,14.5569 0.6653,26.8653 1.1521,27.3521 0.5134,0.5134 4.6006,-2.1371 9.733,-6.3116 37.9975,-30.9062 82.8306,-48.3512 141.8479,-55.1945 16.8134,-1.9496 65.566,-1.6448 83.5,0.522 55.7543,6.7365 95.9637,23.3567 125.6259,51.9265 27.8701,26.8437 42.9957,58.6441 50.0558,105.2385 1.7138,11.31 1.8183,24.0457 1.8183,221.5 v 209.5 h -125 -125 l -0.54,-166 c -0.4874,-149.864 -0.7035,-166.8804 -2.2231,-175.0576 -6.0916,-32.7815 -17.5221,-47.1709 -43.4377,-54.682 -7.0225,-2.0353 -9.8906,-2.2566 -28.7992,-2.2218 -19.9805,0.037 -21.4276,0.1708 -29.8075,2.7622 -15.6785,4.8486 -26.9706,12.1721 -35.4626,22.9991 -8.715,11.1113 -12.7347,19.9057 -16.5461,36.2001 -2.0825,8.9032 -2.1109,10.7587 -2.6445,172.5 l -0.5393,163.5 -124.5795,0.2539 c -68.5187,0.1396 -124.8812,-0.048 -125.25,-0.4167 z M 741.49276,2463.9049 c -184.025,-12.3558 -339.4431,-143.0161 -383.4948,-322.4049 -7.6076,-30.9801 -10.9097,-56.3725 -11.7039,-90 -1.7747,-75.1506 15.2077,-146.2029 50.4319,-211 10.7666,-19.8058 896.45214,-1552.64114 906.11584,-1568.19361 43.6565,-70.25912 111.8652,-129.55906 187.1394,-162.69718 104.8712,-46.167699 221.493,-48.633799 326.9812,-6.9146 38.9372,15.39921 76.4813,37.2193 110.1439,64.01412 17.2671,13.74432 51.3995,47.8766 65.2915,65.29128 15.5196,19.45495 30.4294,42.48713 54.3772,84 11.5808,20.075 207.8424,359.79003 436.1369,754.92229 228.2945,395.1323 415.0809,718.7948 415.0809,719.25 0,0.4552 -130.7164,0.8277 -290.4809,0.8277 h -290.481 l -0.4764,-2.25 c -0.262,-1.2375 -0.9617,-6.3 -1.5548,-11.25 -3.6233,-30.2401 -13.6494,-71.2333 -24.8992,-101.8046 -4.4388,-12.0625 -435.961,-1026.55595 -440.1442,-1034.7636 -4.4577,-8.74604 -14.77,-14.48795 -24.679,-13.7413 -9.8696,0.74368 -17.9158,6.2027 -22.0897,14.98685 -6.297,13.25247 -435.7406,1023.43115 -439.5378,1033.92335 -28.6177,79.0737 -36.3062,165.6757 -22.1501,249.4953 22.3661,132.4328 100.3956,251.9296 213.4931,326.9503 66.576,44.1617 136.7277,69.7327 218.4891,79.6415 15.2397,1.8469 23.3192,2.1865 52.5109,2.2068 37.1428,0.026 50.8508,-0.9881 81,-5.991 124.4062,-20.6436 235.9756,-88.2561 312.7275,-189.5172 49.9863,-65.9482 84.5535,-149.0412 94.8025,-227.8864 0.8937,-6.875 1.8236,-13.5125 2.0665,-14.75 l 0.4416,-2.25 h 316.9553 316.9552 l 1.4075,2.75 c 0.7741,1.5125 3.0008,7.7 4.9482,13.75 31.429,97.6424 26.7269,202.6261 -13.2799,296.5 -45.8811,107.6576 -135.6675,192.6776 -245.5244,232.4906 -37.1625,13.4679 -76.3511,21.6096 -118,24.5152 -17.1317,1.1951 -1821.17104,1.0962 -1839.00004,-0.1009 z"
     style="fill:#273996" />
</svg>
